<svg width="52" height="51" viewBox="0 0 52 51" fill="none" xmlns="http://www.w3.org/2000/svg">
<path fill-rule="evenodd" clip-rule="evenodd" d="M25.9728 0.451172C23.5932 0.451172 21.6641 2.38027 21.6641 4.75992V21.2767H5.14745C2.7678 21.2767 0.838707 23.2058 0.838707 25.5855C0.838707 27.9651 2.7678 29.8942 5.14746 29.8942H21.6641V46.4111C21.6641 48.7908 23.5932 50.7199 25.9728 50.7199C28.3525 50.7199 30.2816 48.7908 30.2816 46.4111V29.8942H46.7987C49.1783 29.8942 51.1074 27.9651 51.1074 25.5855C51.1074 23.2058 49.1783 21.2767 46.7987 21.2767H30.2816V4.75992C30.2816 2.38026 28.3525 0.451172 25.9728 0.451172Z" fill="white"/>
</svg>
