<svg width="19" height="18" viewBox="0 0 19 18" fill="none" xmlns="http://www.w3.org/2000/svg">
<path d="M0.704639 9.00003C0.70465 9.83275 1.37971 10.5078 2.21242 10.5078L7.99241 10.5079L7.99249 16.2873C7.9925 17.12 8.66756 17.7951 9.50027 17.7951C10.333 17.7951 11.008 17.1201 11.008 16.2874L11.0079 10.5079L16.7874 10.508C17.6201 10.508 18.2952 9.83298 18.2952 9.00027C18.2952 8.16755 17.6201 7.4925 16.7874 7.49249L11.0079 7.49241L11.0078 1.71236C11.0078 0.87965 10.3328 0.204593 9.50004 0.204582C8.66733 0.204571 7.99229 0.879611 7.9923 1.71232L7.99237 7.49237L2.21238 7.49229C1.37967 7.49228 0.704628 8.16732 0.704639 9.00003Z" fill="#6F6F6F"/>
</svg>
