<svg width="17" height="17" viewBox="0 0 17 17" fill="none" xmlns="http://www.w3.org/2000/svg">
<path d="M0.555055 0.555117C-0.185019 1.29521 -0.185018 2.49514 0.555056 3.23523L5.69203 8.37234L0.555544 13.509C-0.18453 14.249 -0.184531 15.449 0.555543 16.1891C1.29562 16.9292 2.49551 16.9292 3.23559 16.1891L8.37207 11.0525L13.5086 16.1891C14.2487 16.9292 15.4486 16.9292 16.1886 16.1891C16.9287 15.449 16.9287 14.2491 16.1886 13.509L11.0521 8.37234L16.1891 3.23518C16.9292 2.49509 16.9292 1.29516 16.1891 0.55507C15.4491 -0.185024 14.2492 -0.185023 13.5091 0.55507L8.37207 5.69222L3.2351 0.555117C2.49503 -0.184976 1.29513 -0.184977 0.555055 0.555117Z" fill="#6E6E6E"/>
</svg>
