<svg width="31" height="29" viewBox="0 0 31 29" fill="none" xmlns="http://www.w3.org/2000/svg">
<path fill-rule="evenodd" clip-rule="evenodd" d="M5.21812 4.53418C2.34506 4.53418 0.0159912 6.86325 0.0159912 9.73631V23.0476C0.0159912 25.9207 2.34506 28.2498 5.21811 28.2498H25.1596C28.0327 28.2498 30.3617 25.9207 30.3617 23.0476L30.3617 13.5106L0.015999 13.5106L0.0159988 11.7766L30.3617 11.7766L30.3617 9.73631C30.3617 6.86325 28.0327 4.53418 25.1596 4.53418H5.21812Z" fill="#7B86A4"/>
<path d="M8.07015 1.37231C8.07015 0.893472 7.68197 0.505293 7.20312 0.505293C6.72428 0.505293 6.3361 0.893472 6.3361 1.37231H8.07015ZM8.07015 4.92965V1.37231H6.3361V4.92965H8.07015Z" fill="#7B86A4"/>
<path d="M23.2431 1.37231C23.2431 0.893472 22.8549 0.505293 22.376 0.505293C21.8972 0.505293 21.509 0.893472 21.509 1.37231H23.2431ZM23.2431 4.92965V1.37231H21.509V4.92965H23.2431Z" fill="#7B86A4"/>
</svg>
