<svg width="21" height="28" viewBox="0 0 21 28" fill="none" xmlns="http://www.w3.org/2000/svg">
<path d="M13.1968 25.1436C13.1968 26.5801 12.0323 27.7446 10.5958 27.7446C9.15925 27.7446 7.99471 26.5801 7.99471 25.1436L13.1968 25.1436Z" fill="#7B86A4"/>
<mask id="path-2-inside-1_2537_2485" fill="white">
<path fill-rule="evenodd" clip-rule="evenodd" d="M14.0528 3.18923C18.0996 4.6144 21 8.47116 21 13.0054V23.4096H0.191528V13.0054C0.191528 8.47115 3.09199 4.61438 7.13876 3.18923C7.28077 1.40425 8.77429 0 10.5958 0C12.4173 0 13.9108 1.40425 14.0528 3.18923Z"/>
</mask>
<path d="M14.0528 3.18923L12.3243 3.32676L12.4136 4.45039L13.4768 4.82481L14.0528 3.18923ZM21 23.4096V25.1437H22.7341V23.4096H21ZM0.191528 23.4096H-1.54251V25.1437H0.191528V23.4096ZM7.13876 3.18923L7.71476 4.82481L8.77794 4.45039L8.86734 3.32676L7.13876 3.18923ZM13.4768 4.82481C16.8514 6.01326 19.266 9.22957 19.266 13.0054H22.7341C22.7341 7.71275 19.3477 3.21553 14.6288 1.55366L13.4768 4.82481ZM19.266 13.0054V23.4096H22.7341V13.0054H19.266ZM21 21.6756H0.191528V25.1437H21V21.6756ZM1.92557 23.4096V13.0054H-1.54251V23.4096H1.92557ZM1.92557 13.0054C1.92557 9.22956 4.34015 6.01325 7.71476 4.82481L6.56275 1.55365C1.84384 3.21552 -1.54251 7.71274 -1.54251 13.0054H1.92557ZM8.86734 3.32676C8.9382 2.43605 9.68588 1.73404 10.5958 1.73404V-1.73404C7.86271 -1.73404 5.62334 0.372446 5.41018 3.0517L8.86734 3.32676ZM10.5958 1.73404C11.5057 1.73404 12.2534 2.43606 12.3243 3.32676L15.7814 3.05171C15.5682 0.372451 13.3289 -1.73404 10.5958 -1.73404V1.73404Z" fill="#7B86A4" mask="url(#path-2-inside-1_2537_2485)"/>
</svg>
