<svg width="21" height="28" viewBox="0 0 21 28" fill="none" xmlns="http://www.w3.org/2000/svg">
<path d="M13.1968 25.314C13.1968 26.7505 12.0323 27.915 10.5958 27.915C9.15925 27.915 7.99471 26.7505 7.99471 25.314L13.1968 25.314Z" fill="#7B86A4"/>
<mask id="path-2-inside-1_2537_2505" fill="white">
<path fill-rule="evenodd" clip-rule="evenodd" d="M14.0528 3.3594C18.0996 4.78456 21 8.64133 21 13.1755V23.5798H0.191528V13.1755C0.191528 8.64132 3.09199 4.78455 7.13876 3.35939C7.28077 1.57442 8.77429 0.170166 10.5958 0.170166C12.4173 0.170166 13.9108 1.57442 14.0528 3.3594Z"/>
</mask>
<path fill-rule="evenodd" clip-rule="evenodd" d="M14.0528 3.3594C18.0996 4.78456 21 8.64133 21 13.1755V23.5798H0.191528V13.1755C0.191528 8.64132 3.09199 4.78455 7.13876 3.35939C7.28077 1.57442 8.77429 0.170166 10.5958 0.170166C12.4173 0.170166 13.9108 1.57442 14.0528 3.3594Z" fill="#7B86A4"/>
<path d="M14.0528 3.3594L12.3243 3.49693L12.4136 4.62056L13.4768 4.99498L14.0528 3.3594ZM21 23.5798V25.3138H22.7341V23.5798H21ZM0.191528 23.5798H-1.54251V25.3138H0.191528V23.5798ZM7.13876 3.35939L7.71476 4.99497L8.77794 4.62055L8.86734 3.49692L7.13876 3.35939ZM13.4768 4.99498C16.8514 6.18343 19.266 9.39973 19.266 13.1755H22.7341C22.7341 7.88292 19.3477 3.3857 14.6288 1.72382L13.4768 4.99498ZM19.266 13.1755V23.5798H22.7341V13.1755H19.266ZM21 21.8457H0.191528V25.3138H21V21.8457ZM1.92557 23.5798V13.1755H-1.54251V23.5798H1.92557ZM1.92557 13.1755C1.92557 9.39973 4.34015 6.18342 7.71476 4.99497L6.56275 1.72381C1.84384 3.38568 -1.54251 7.88291 -1.54251 13.1755H1.92557ZM8.86734 3.49692C8.9382 2.60622 9.68588 1.90421 10.5958 1.90421V-1.56388C7.86271 -1.56388 5.62334 0.542612 5.41018 3.22186L8.86734 3.49692ZM10.5958 1.90421C11.5057 1.90421 12.2534 2.60622 12.3243 3.49693L15.7814 3.22187C15.5682 0.542617 13.3289 -1.56388 10.5958 -1.56388V1.90421Z" fill="#7B86A4" mask="url(#path-2-inside-1_2537_2505)"/>
</svg>
