<svg width="35" height="43" viewBox="0 0 35 43" fill="none" xmlns="http://www.w3.org/2000/svg">
<mask id="path-1-outside-1_2532_2424" maskUnits="userSpaceOnUse" x="0.437195" y="27.717" width="34" height="15" fill="black">
<rect fill="white" x="0.437195" y="27.717" width="34" height="15"/>
<path fill-rule="evenodd" clip-rule="evenodd" d="M9.26558 29.717L4.43719 35.5159L11.0756 34.1791L12.2489 39.3782L17.4425 33.1408L22.6361 39.3782L23.8094 34.1791L30.4478 35.5159L25.8705 30.0186C23.6308 31.2682 20.8446 32.009 17.825 32.009C14.5699 32.009 11.5861 31.1482 9.26558 29.717Z"/>
</mask>
<path d="M9.26558 29.717L10.0458 28.452L8.94839 27.7751L8.12337 28.766L9.26558 29.717ZM4.43719 35.5159L3.29499 34.5648L0.596765 37.8053L4.73059 36.9729L4.43719 35.5159ZM11.0756 34.1791L12.5255 33.852L12.2058 32.4354L10.7822 32.7221L11.0756 34.1791ZM12.2489 39.3782L10.799 39.7054L11.4625 42.6455L13.3911 40.3293L12.2489 39.3782ZM17.4425 33.1408L18.5847 32.1897L17.4425 30.8179L16.3003 32.1897L17.4425 33.1408ZM22.6361 39.3782L21.4939 40.3293L23.4225 42.6455L24.0859 39.7054L22.6361 39.3782ZM23.8094 34.1791L24.1028 32.7221L22.6792 32.4354L22.3595 33.852L23.8094 34.1791ZM30.4478 35.5159L30.1544 36.9729L34.2882 37.8053L31.59 34.5648L30.4478 35.5159ZM25.8705 30.0186L27.0127 29.0676L26.2234 28.1197L25.1463 28.7207L25.8705 30.0186ZM8.12337 28.766L3.29499 34.5648L5.5794 36.4669L10.4078 30.6681L8.12337 28.766ZM4.73059 36.9729L11.369 35.6362L10.7822 32.7221L4.1438 34.0588L4.73059 36.9729ZM9.62573 34.5063L10.799 39.7054L13.6987 39.051L12.5255 33.852L9.62573 34.5063ZM13.3911 40.3293L18.5847 34.0918L16.3003 32.1897L11.1067 38.4271L13.3911 40.3293ZM16.3003 34.0918L21.4939 40.3293L23.7783 38.4271L18.5847 32.1897L16.3003 34.0918ZM24.0859 39.7054L25.2592 34.5063L22.3595 33.852L21.1862 39.051L24.0859 39.7054ZM23.516 35.6362L30.1544 36.9729L30.7412 34.0588L24.1028 32.7221L23.516 35.6362ZM31.59 34.5648L27.0127 29.0676L24.7283 30.9697L29.3055 36.4669L31.59 34.5648ZM25.1463 28.7207C23.1411 29.8394 20.6066 30.5227 17.825 30.5227V33.4953C21.0826 33.4953 24.1204 32.6971 26.5947 31.3166L25.1463 28.7207ZM17.825 30.5227C14.8251 30.5227 12.115 29.7282 10.0458 28.452L8.48535 30.9821C11.0571 32.5682 14.3146 33.4953 17.825 33.4953V30.5227Z" fill="#7B86A4" mask="url(#path-1-outside-1_2532_2424)"/>
<circle cx="17.8905" cy="14.6247" r="13.1474" stroke="#7B86A4" stroke-width="1.48632"/>
<path d="M19.3169 9.68299V20.1111H17.1121V11.7757H17.051L14.663 13.2727V11.3175L17.2445 9.68299H19.3169Z" fill="#7B86A4"/>
</svg>
