<svg width="35" height="43" viewBox="0 0 35 43" fill="none" xmlns="http://www.w3.org/2000/svg">
<mask id="path-1-outside-1_2532_2434" maskUnits="userSpaceOnUse" x="0.437134" y="27.7322" width="34" height="15" fill="black">
<rect fill="white" x="0.437134" y="27.7322" width="34" height="15"/>
<path fill-rule="evenodd" clip-rule="evenodd" d="M9.26538 29.7322L4.43713 35.5308L11.0755 34.1941L12.2488 39.3932L17.4424 33.1557L22.636 39.3932L23.8093 34.1941L30.4477 35.5308L25.8706 30.0338C23.6308 31.2834 20.8446 32.0242 17.825 32.0242C14.5697 32.0242 11.5859 31.1634 9.26538 29.7322Z"/>
</mask>
<path fill-rule="evenodd" clip-rule="evenodd" d="M9.26538 29.7322L4.43713 35.5308L11.0755 34.1941L12.2488 39.3932L17.4424 33.1557L22.636 39.3932L23.8093 34.1941L30.4477 35.5308L25.8706 30.0338C23.6308 31.2834 20.8446 32.0242 17.825 32.0242C14.5697 32.0242 11.5859 31.1634 9.26538 29.7322Z" fill="#7B86A4"/>
<path d="M9.26538 29.7322L10.0456 28.4671L8.94821 27.7903L8.12318 28.7811L9.26538 29.7322ZM4.43713 35.5308L3.29493 34.5798L0.596704 37.8203L4.73053 36.9879L4.43713 35.5308ZM11.0755 34.1941L12.5254 33.8669L12.2057 32.4504L10.7821 32.737L11.0755 34.1941ZM12.2488 39.3932L10.7989 39.7204L11.4624 42.6604L13.391 40.3442L12.2488 39.3932ZM17.4424 33.1557L18.5846 32.2047L17.4424 30.8329L16.3002 32.2047L17.4424 33.1557ZM22.636 39.3932L21.4938 40.3442L23.4224 42.6604L24.0859 39.7204L22.636 39.3932ZM23.8093 34.1941L24.1027 32.737L22.6791 32.4504L22.3594 33.8669L23.8093 34.1941ZM30.4477 35.5308L30.1543 36.9879L34.2881 37.8203L31.5899 34.5798L30.4477 35.5308ZM25.8706 30.0338L27.0128 29.0827L26.2235 28.1348L25.1464 28.7358L25.8706 30.0338ZM8.12318 28.7811L3.29493 34.5798L5.57934 36.4819L10.4076 30.6832L8.12318 28.7811ZM4.73053 36.9879L11.3689 35.6512L10.7821 32.737L4.14374 34.0738L4.73053 36.9879ZM9.62567 34.5213L10.7989 39.7204L13.6987 39.066L12.5254 33.8669L9.62567 34.5213ZM13.391 40.3442L18.5846 34.1068L16.3002 32.2047L11.1066 38.4421L13.391 40.3442ZM16.3002 34.1068L21.4938 40.3442L23.7782 38.4421L18.5846 32.2047L16.3002 34.1068ZM24.0859 39.7204L25.2592 34.5213L22.3594 33.8669L21.1862 39.066L24.0859 39.7204ZM23.5159 35.6512L30.1543 36.9879L30.7411 34.0738L24.1027 32.737L23.5159 35.6512ZM31.5899 34.5798L27.0128 29.0827L24.7284 30.9848L29.3055 36.4819L31.5899 34.5798ZM25.1464 28.7358C23.1412 29.8546 20.6066 30.5379 17.825 30.5379V33.5105C21.0826 33.5105 24.1205 32.7123 26.5948 31.3317L25.1464 28.7358ZM17.825 30.5379C14.825 30.5379 12.1149 29.7434 10.0456 28.4671L8.48514 30.9972C11.0569 32.5834 14.3145 33.5105 17.825 33.5105V30.5379Z" fill="#7B86A4" mask="url(#path-1-outside-1_2532_2434)"/>
<circle cx="17.8905" cy="14.6396" r="13.8905" fill="#7B86A4"/>
<path d="M19.3169 9.69788V20.126H17.1121V11.7906H17.051L14.663 13.2876V11.3324L17.2445 9.69788H19.3169Z" fill="white"/>
</svg>
