<svg width="30" height="30" viewBox="0 0 30 30" fill="none" xmlns="http://www.w3.org/2000/svg">
<circle cx="15.0133" cy="14.9443" r="13.4388" fill="#7B86A4" stroke="#7B86A4" stroke-width="1.73404"/>
<path d="M16.2865 15.7564H10.9037V14.4221H16.2661C16.7278 14.4221 17.1098 14.3457 17.4119 14.193C17.7141 14.0368 17.9381 13.8229 18.0841 13.5513C18.2301 13.2763 18.3031 12.9606 18.3031 12.6041C18.3031 12.251 18.2301 11.9353 18.0841 11.6569C17.9381 11.3785 17.7158 11.1595 17.417 11C17.1182 10.837 16.7414 10.7555 16.2865 10.7555H14.0661V19.8406H12.4976V9.4111H16.2865C17.0775 9.4111 17.7378 9.55369 18.2675 9.83887C18.8005 10.1241 19.1994 10.5077 19.4642 10.9898C19.7324 11.4719 19.8665 12.0083 19.8665 12.599C19.8665 13.1965 19.7307 13.7346 19.4591 14.2133C19.1909 14.6886 18.7903 15.0655 18.2573 15.3439C17.7277 15.6189 17.0707 15.7564 16.2865 15.7564ZM16.3629 16.6323V17.9716H10.9037V16.6323H16.3629Z" fill="white"/>
</svg>
