<svg width="30" height="30" viewBox="0 0 30 30" fill="none" xmlns="http://www.w3.org/2000/svg">
<circle cx="15.0133" cy="15.04" r="13.4388" stroke="#7B86A4" stroke-width="1.73404"/>
<path d="M16.2865 15.8518H10.9037V14.5176H16.2661C16.7278 14.5176 17.1098 14.4412 17.4119 14.2884C17.7141 14.1323 17.9381 13.9184 18.0841 13.6468C18.2301 13.3718 18.3031 13.056 18.3031 12.6996C18.3031 12.3465 18.2301 12.0307 18.0841 11.7524C17.9381 11.474 17.7158 11.255 17.417 11.0954C17.1182 10.9325 16.7414 10.851 16.2865 10.851H14.0661V19.936H12.4976V9.50656H16.2865C17.0775 9.50656 17.7378 9.64915 18.2675 9.93433C18.8005 10.2195 19.1994 10.6031 19.4642 11.0852C19.7324 11.5673 19.8665 12.1037 19.8665 12.6945C19.8665 13.292 19.7307 13.8301 19.4591 14.3088C19.1909 14.7841 18.7903 15.161 18.2573 15.4393C17.7277 15.7143 17.0707 15.8518 16.2865 15.8518ZM16.3629 16.7277V18.0671H10.9037V16.7277H16.3629Z" fill="#7B86A4"/>
</svg>
