<svg width="24" height="10" viewBox="0 0 24 10" fill="none" xmlns="http://www.w3.org/2000/svg">
<path fill-rule="evenodd" clip-rule="evenodd" d="M19.7957 0.198868L23.815 4.51989C24.0617 4.78504 24.0617 5.21495 23.815 5.48011L19.7957 9.80113C19.549 10.0663 19.1491 10.0663 18.9025 9.80113C18.6558 9.53597 18.6558 9.10606 18.9025 8.8409L21.8437 5.67898L0.631579 5.67898C0.282768 5.67898 4.69897e-07 5.37499 4.37114e-07 5C4.04331e-07 4.62501 0.282768 4.32102 0.631579 4.32102L21.8437 4.32102L18.9025 1.15909C18.6558 0.893935 18.6558 0.464027 18.9025 0.198868C19.1491 -0.0662915 19.549 -0.0662915 19.7957 0.198868Z" fill="#1E1E1E"/>
</svg>
